# xmcd
#
# Track frame offsets: 
#        150
#        13473
#        25307
#        37860
#        53810
#        69538
#        83627
#        105187
#        126649
#        139614
#        157103
#        175485
#        192587
#        205634
#
# Disc length: 2932 seconds
#
# Revision: 0
# Processed by: cddbd v1.5.2PL0 Copyright (c) Steve Scherf et al.
# Submitted via: ExactAudioCopy v0.95b3
#
DISCID=c20b720e
DTITLE=The Temptations - Playlist Plus (2)
DYEAR=1900
DGENRE=R&B
TTITLE0=You're My Everything
TTITLE1=(Loneliness Made Me Realize) It's You That I Need
TTITLE2=I Wish It Would Rain
TTITLE3=I Could Never Love Another (After Loving You)
TTITLE4=Cloud Nine
TTITLE5=I'm Gonna Make You Love Me
TTITLE6=Runaway Child, Running Wild
TTITLE7=Don't Let The Joneses Get You Down
TTITLE8=I Can't Get Next To You
TTITLE9=Psychedelic Shack
TTITLE10=Ball Of Confusion (That's What The World Is Today)
TTITLE11=Just My Imagination (Running Away With Me)
TTITLE12=Superstar (Remember How You Got Where You Are)
TTITLE13=Take A Look Around
EXTD=
EXTT0=
EXTT1=
EXTT2=
EXTT3=
EXTT4=
EXTT5=
EXTT6=
EXTT7=
EXTT8=
EXTT9=
EXTT10=
EXTT11=
EXTT12=
EXTT13=
PLAYORDER=
